<svg version="1.1" viewBox="0.0 0.0 960.0 264.56692913385825" fill="none" stroke="none" stroke-linecap="square" stroke-miterlimit="10" xmlns:xlink="http://www.w3.org/1999/xlink" xmlns="http://www.w3.org/2000/svg"><clipPath id="g2c9003eda05_0_4.0"><path d="m0 0l960.0 0l0 264.56693l-960.0 0l0 -264.56693z" clip-rule="nonzero"/></clipPath><g clip-path="url(#g2c9003eda05_0_4.0)"><path fill="#000000" fill-opacity="0.0" d="m0 0l960.0 0l0 264.56693l-960.0 0z" fill-rule="evenodd"/><path fill="#000000" fill-opacity="0.0" d="m0 -13.043478l960.0 0l0 264.56693l-960.0 0z" fill-rule="evenodd"/><path fill="#4285f4" d="m179.52438 190.952q-3.390625 0 -5.578125 -2.09375q-2.1875 -2.09375 -2.1875 -5.46875l0 -57.375008q0 -14.140625 -7.375 -22.40625q-7.359375 -8.265625 -18.921875 -8.265625q-12.34375 0 -20.21875 8.265625q-7.859375 8.265625 -7.671875 22.015625l-13.734375 0q0.203125 -13.34375 5.765625 -23.5q5.578125 -10.171875 15.34375 -15.75q9.765625 -5.578125 22.109375 -5.578125q11.75 0 20.8125 5.578125q9.0625 5.578125 14.140625 15.75q5.09375 10.15625 5.09375 23.890625l0 57.375008q0 3.375 -2.09375 5.46875q-2.09375 2.09375 -5.484375 2.09375zm-139.4375 0q-3.578125 0 -5.671875 -2.09375q-2.09375 -2.09375 -2.09375 -5.46875l0 -93.62501q0 -3.390625 2.09375 -5.578125q2.09375 -2.1875 5.671875 -2.1875q3.390625 0 5.484375 2.1875q2.09375 2.1875 2.09375 5.578125l0 93.62501q0 3.375 -2.09375 5.46875q-2.09375 2.09375 -5.484375 2.09375zm69.921875 0q-3.390625 0 -5.578125 -2.09375q-2.1875 -2.09375 -2.1875 -5.46875l0 -57.375008q0 -14.140625 -7.375 -22.40625q-7.359375 -8.265625 -18.921875 -8.265625q-12.34375 0 -20.3125 8.078125q-7.96875 8.0625 -7.96875 21.0l-10.953125 0q0.390625 -12.75 5.671875 -22.609375q5.28125 -9.859375 14.4375 -15.4375q9.171875 -5.578125 20.71875 -5.578125q11.75 0 20.8125 5.578125q9.0625 5.578125 14.140625 15.75q5.078125 10.15625 5.078125 23.890625l0 57.375008q0 3.375 -2.09375 5.46875q-2.078125 2.09375 -5.46875 2.09375zm160.55246 1.0q-15.9375 0 -28.5 -7.171875q-12.546875 -7.171875 -19.71875 -19.71875q-7.15625 -12.546875 -7.15625 -28.484375q0 -16.140633 7.15625 -28.687508q7.171875 -12.546875 19.71875 -19.71875q12.5625 -7.171875 28.5 -7.171875q15.921875 0 28.375 7.171875q12.453125 7.171875 19.625 19.71875q7.171875 12.546875 7.375 28.687508q0 15.9375 -7.28125 28.484375q-7.265625 12.546875 -19.71875 19.71875q-12.453125 7.171875 -28.375 7.171875zm0 -13.953125q11.546875 0 20.703125 -5.375q9.171875 -5.375 14.34375 -14.734375q5.1875 -9.359375 5.1875 -21.3125q0 -11.953133 -5.1875 -21.406258q-5.171875 -9.46875 -14.34375 -14.84375q-9.15625 -5.390625 -20.703125 -5.390625q-11.5625 0 -20.734375 5.390625q-9.15625 5.375 -14.4375 14.84375q-5.265625 9.453125 -5.265625 21.406258q0 11.953125 5.265625 21.3125q5.28125 9.359375 14.4375 14.734375q9.171875 5.375 20.734375 5.375z" fill-rule="nonzero"/><path fill="#cccccc" d="m379.1143 237.56137q-2.390625 0 -4.1875 -1.203125q-1.796875 -1.1875 -3.1875 -3.96875q-11.75 -24.109375 -17.53125 -48.109375q-5.765625 -24.0 -5.765625 -48.109375q0 -24.093758 5.765625 -48.000008q5.78125 -23.90625 17.53125 -47.79687q2.390625 -5.1875 7.375 -5.1875q3.1875 0 5.375 2.203125q2.1875 2.1875 2.1875 5.359375q0 2.390625 -1.1875 4.390625q-21.921875 44.42187 -21.921875 89.234375q0 22.3125 5.578125 44.828125q5.578125 22.5 16.546875 44.609375q1.1875 2.390625 1.1875 4.1875q0 3.1875 -2.1875 5.375q-2.1875 2.1875 -5.578125 2.1875z" fill-rule="nonzero"/><path fill="#ff00ff" d="m456.40317 191.952q-15.75 0 -28.296875 -7.265625q-12.546875 -7.28125 -19.8125 -19.828125q-7.265625 -12.546875 -7.265625 -28.484375q0 -15.734383 7.0625 -28.281258q7.078125 -12.546875 19.21875 -19.8125q12.15625 -7.28125 27.5 -7.28125q13.34375 0 24.09375 5.6875q10.75 5.671875 17.328125 15.03125l0 -58.562496q0 -3.578125 2.1875 -5.671875q2.203125 -2.09375 5.578125 -2.09375q3.390625 0 5.578125 2.09375q2.203125 2.09375 2.203125 5.671875l0 94.015625q-0.40625 15.53125 -7.6875 27.984375q-7.265625 12.453125 -19.71875 19.625q-12.4375 7.171875 -27.96875 7.171875zm0 -13.953125q11.546875 0 20.609375 -5.46875q9.0625 -5.484375 14.34375 -14.84375q5.28125 -9.359375 5.28125 -21.3125q0 -11.750008 -5.28125 -21.203133q-5.28125 -9.46875 -14.34375 -14.84375q-9.0625 -5.390625 -20.609375 -5.390625q-11.359375 0 -20.53125 5.390625q-9.15625 5.375 -14.53125 14.84375q-5.375 9.453125 -5.375 21.203133q0 11.953125 5.375 21.3125q5.375 9.359375 14.53125 14.84375q9.171875 5.46875 20.53125 5.46875zm138.62247 14.140625q-14.140625 0 -25.296875 -5.875q-11.15625 -5.875 -17.625 -17.21875q-6.46875 -11.359375 -6.46875 -27.6875l0 -51.796883q0 -3.1875 2.1875 -5.375q2.1875 -2.1875 5.375 -2.1875q3.390625 0 5.578125 2.1875q2.1875 2.1875 2.1875 5.375l0 51.796883q0 12.34375 4.6875 20.3125q4.6875 7.96875 12.75 11.953125q8.0625 3.984375 18.21875 3.984375q9.765625 0 17.625 -3.78125q7.875 -3.796875 12.453125 -10.359375q4.578125 -6.578125 4.578125 -14.9375l10.96875 0q-0.609375 12.546875 -6.890625 22.40625q-6.265625 9.859375 -16.828125 15.53125q-10.546875 5.671875 -23.5 5.671875zm43.828125 -1.1875q-3.390625 0 -5.484375 -2.09375q-2.09375 -2.09375 -2.09375 -5.671875l0 -93.62501q0 -3.375 2.09375 -5.46875q2.09375 -2.09375 5.484375 -2.09375q3.390625 0 5.578125 2.09375q2.1875 2.09375 2.1875 5.46875l0 93.62501q0 3.578125 -2.1875 5.671875q-2.1875 2.09375 -5.578125 2.09375z" fill-rule="nonzero"/><path fill="#cccccc" d="m680.6881 223.21762q-2.0 0 -3.09375 -1.09375q-1.09375 -1.09375 -1.09375 -2.890625q0 -2.984375 1.78125 -5.484375q1.796875 -2.484375 3.6875 -5.28125q1.90625 -2.78125 1.90625 -6.765625q0 -3.578125 -1.40625 -5.96875q-1.390625 -2.390625 -3.28125 -4.28125q-1.890625 -1.890625 -3.296875 -4.171875q-1.390625 -2.296875 -1.390625 -5.6875q0 -4.984375 3.28125 -7.96875q3.296875 -2.984375 8.28125 -2.984375q5.96875 0 9.75 4.6875q3.796875 4.671875 3.796875 13.03125q0 5.578125 -1.59375 11.75q-1.59375 6.1875 -4.390625 11.453125q-2.78125 5.28125 -6.171875 8.46875q-3.390625 3.1875 -6.765625 3.1875z" fill-rule="nonzero"/><path fill="#6aa84f" d="m751.00134 190.952q-7.96875 0 -14.25 -4.375q-6.265625 -4.390625 -9.765625 -12.15625q-3.484375 -7.765625 -3.484375 -17.921875l0 -113.546875q0 -3.375 2.09375 -5.46875q2.09375 -2.09375 5.484375 -2.09375q3.390625 0 5.46875 2.09375q2.09375 2.09375 2.09375 5.46875l0 113.546875q0 8.5625 3.484375 13.9375q3.484375 5.375 8.875 5.375l4.96875 0q3.0 0 4.78125 2.09375q1.796875 2.09375 1.796875 5.484375q0 3.375 -2.5 5.46875q-2.484375 2.09375 -6.46875 2.09375l-2.578125 0zm74.694885 1.0q-15.34375 0 -27.5 -7.265625q-12.140625 -7.28125 -19.21875 -19.828125q-7.0625 -12.546875 -7.0625 -28.28125q0 -15.937508 7.265625 -28.484383q7.265625 -12.546875 19.8125 -19.8125q12.546875 -7.28125 28.296875 -7.28125q15.734375 0 28.171875 7.28125q12.453125 7.265625 19.71875 19.8125q7.28125 12.546875 7.484375 28.484383l-6.1875 4.78125q0 14.34375 -6.671875 25.796875q-6.671875 11.453125 -18.125 18.125q-11.453125 6.671875 -25.984375 6.671875zm1.59375 -13.953125q11.546875 0 20.609375 -5.375q9.0625 -5.375 14.34375 -14.828125q5.28125 -9.46875 5.28125 -21.21875q0 -11.953133 -5.28125 -21.312508q-5.28125 -9.359375 -14.34375 -14.84375q-9.0625 -5.484375 -20.609375 -5.484375q-11.359375 0 -20.53125 5.484375q-9.15625 5.484375 -14.53125 14.84375q-5.375 9.359375 -5.375 21.312508q0 11.75 5.375 21.21875q5.375 9.453125 14.53125 14.828125q9.171875 5.375 20.53125 5.375zm47.59375 12.953125q-3.375 0 -5.578125 -2.09375q-2.1875 -2.09375 -2.1875 -5.46875l0 -34.0625l3.78125 -15.734375l11.765625 2.984375l0 46.8125q0 3.375 -2.203125 5.46875q-2.1875 2.09375 -5.578125 2.09375z" fill-rule="nonzero"/><path fill="#cccccc" d="m904.37427 237.56137q-3.1875 0 -5.390625 -2.1875q-2.1875 -2.1875 -2.1875 -5.375q0 -1.796875 1.0 -4.1875q10.953125 -22.109375 16.625 -44.609375q5.6875 -22.515625 5.6875 -44.828125q0 -44.812508 -22.109375 -89.234375q-1.0 -2.0 -1.203125 -4.390625q0 -3.171875 2.28125 -5.359375q2.296875 -2.203125 5.296875 -2.203125q5.171875 0 7.5625 5.1875q11.75 23.890621 17.53125 47.79687q5.78125 23.90625 5.78125 48.000008q0 24.109375 -5.890625 48.109375q-5.875 24.0 -17.421875 48.109375q-1.59375 2.78125 -3.296875 3.96875q-1.6875 1.203125 -4.265625 1.203125z" fill-rule="nonzero"/></g></svg>
